<svg fill="none" height="32" width="32" xmlns="http://www.w3.org/2000/svg"><filter id="b" color-interpolation-filters="sRGB" filterUnits="userSpaceOnUse" height="36" width="32" x="0" y="0"><feFlood flood-opacity="0" result="BackgroundImageFix"/><feBlend in="SourceGraphic" in2="BackgroundImageFix" result="shape"/><feColorMatrix in="SourceAlpha" result="hardAlpha" values="0 0 0 0 0 0 0 0 0 0 0 0 0 0 0 0 0 0 127 0"/><feOffset dy="4"/><feGaussianBlur stdDeviation="2"/><feComposite in2="hardAlpha" k2="-1" k3="1" operator="arithmetic"/><feColorMatrix values="0 0 0 0 1 0 0 0 0 1 0 0 0 0 1 0 0 0 0.1 0"/><feBlend in2="shape" result="effect1_innerShadow"/></filter><clipPath id="a"><path d="M0 0h32v32H0z"/></clipPath><g clip-path="url(#a)"><g filter="url(#b)"><path d="M16.54 31.67a.608.608 0 01-1.08 0A8.51 8.51 0 005.3 27.463a.608.608 0 01-.764-.764A8.51 8.51 0 00.33 16.54a.608.608 0 010-1.08A8.51 8.51 0 004.537 5.3a.608.608 0 01.764-.764A8.51 8.51 0 0015.46.33a.608.608 0 011.08 0A8.51 8.51 0 0026.7 4.537c.47-.15.914.294.764.764A8.51 8.51 0 0031.67 15.46c.439.226.439.854 0 1.08A8.51 8.51 0 0027.462 26.7a.608.608 0 01-.764.764A8.51 8.51 0 0016.54 31.67z" fill="#ffa048"/></g><path d="M16 26c-5.523 0-10-4.477-10-10S10.477 6 16 6s10 4.477 10 10-4.477 10-10 10z" fill="#ffdc55"/></g></svg>