<svg fill="none" height="32" width="32" xmlns="http://www.w3.org/2000/svg"><path d="M24.27 16.835a.304.304 0 01-.54 0 4.255 4.255 0 00-5.08-2.104.304.304 0 01-.381-.382 4.255 4.255 0 00-2.104-5.079.304.304 0 010-.54 4.255 4.255 0 002.104-5.08.304.304 0 01.382-.381 4.255 4.255 0 005.079-2.104.304.304 0 01.54 0 4.255 4.255 0 005.08 2.104.304.304 0 01.381.382 4.255 4.255 0 002.104 5.079c.22.113.22.427 0 .54a4.255 4.255 0 00-2.104 5.08.304.304 0 01-.382.381 4.255 4.255 0 00-5.079 2.104z" fill="#ffa756"/><path d="M24 14a5 5 0 110-10 5 5 0 010 10z" fill="#ffdc55"/><path d="M23.945 12a9.001 9.001 0 00-17.492-1.829A7 7 0 008 24h17a6 6 0 000-12z" fill="#fff"/></svg>