<svg fill="none" height="32" width="32" xmlns="http://www.w3.org/2000/svg"><path d="M11.284 26.34l2.792-6.78a1.663 1.663 0 011.537-1.03h3.768a1 1 0 01.772 1.636L16.996 24h2.944a.5.5 0 01.342.865l-7.326 6.866c-.404.379-1.033-.083-.792-.582l1.984-4.119h-2.401a.5.5 0 01-.463-.69z" fill="#ffdc55"/><path d="M22.419 14c.375-.926.581-1.94.581-3a8 8 0 00-15.938-1H7a6 6 0 000 12h17.5v-8z" fill="#fff"/><path d="M25.9 12a5.002 5.002 0 00-9.8 0H16a5 5 0 000 10h10a5 5 0 000-10z" fill="#b4b9d1"/><g fill="#5399fc"><path d="M9.932 29.433c.282 1.088-.341 2.206-1.39 2.497s-2.129-.354-2.41-1.442-.168-4.174.882-4.466 2.637 2.324 2.918 3.411zM25.933 29.433c.28 1.088-.342 2.206-1.392 2.497s-2.128-.354-2.41-1.442c-.28-1.087-.167-4.174.883-4.466s2.637 2.324 2.919 3.411z"/></g></svg>